<?xml version="1.0" encoding="utf-8"?>

<!DOCTYPE svg PUBLIC "-//W3C//DTD SVG 1.1//EN" "http://www.w3.org/Graphics/SVG/1.1/DTD/svg11.dtd">
<svg version="1.1" id="Layer_1" xmlns="http://www.w3.org/2000/svg" xmlns:xlink="http://www.w3.org/1999/xlink" x="0px" y="0px"
	 viewBox="0 0 1274.458 1668.399" enable-background="new 0 0 1274.458 1668.399" xml:space="preserve">
<g>
	<path d="M550.513,308.041c17.728-1.11,32.699,5.73,46.852,15.411c7.672,5.248,12.538,12.662,17.287,20.261
		c6.991,11.187,13.478,22.671,18.54,34.866c2.119,5.105,3.906,10.364,4.476,16.017c0.697,6.91,3.335,13.414,5.206,20.067
		c2.829,10.058,3.803,20.534,7.544,30.418c2.209,5.834,4.701,11.547,6.868,17.389c0.935,2.521,2.206,1.13,3.464,0.559
		c5.161-2.345,8.978-6.573,13.569-9.728c15.333-10.533,30.712-20.984,43.751-34.484c16.958-17.558,32.53-36.265,47.532-55.494
		c10.404-13.336,21.267-26.314,31.788-39.56c9.576-12.055,19.002-24.222,28.063-36.683c10.028-13.792,21.745-25.78,37.067-34.06
		c10.271-5.551,19.295-13.109,28.12-20.763c14.188-12.306,30.683-21.083,46.99-29.935c20.284-11.012,38.162-24.986,55.193-40.324
		c11.113-10.008,22.213-20.119,29.342-33.399c6.055-11.279,11.237-23.081,16.012-34.97c2.588-6.444,6.536-11.741,10.523-17.16
		c1.101-1.497,2.875-2.777,3.322-4.431c1.865-6.912,6.771-11.602,11.362-16.567c1.138-1.231,2.832-2.442,2.274-4.281
		c-1.206-3.978,1.157-5.745,3.892-7.711c3.018-2.168,5.666-4.845,8.64-7.081c4.587-3.45,10.427-2.787,14.072,1.633
		c3.186,3.862,5.211,8.223,5.168,13.433c-0.042,5.07,0.444,9.715,4.653,13.779c4.678,4.516,7.45,10.889,13.263,14.467
		c0.14,0.086,0.312,0.218,0.35,0.36c2.001,7.462,9.679,11.069,12.301,18.125c0.708,1.906,1.894,3.784,1.669,5.801
		c-1.137,10.179,4.683,17.704,9.694,25.444c4.403,6.802,9.307,13.246,12.731,20.684c4.636,10.072,6.892,20.787,9.107,31.517
		c4.851,23.494,8.803,47.215,16.537,70.002c4.338,12.78,10.025,25.089,14.644,37.753c4.958,13.591,9.846,27.231,13.972,41.16
		c7.671,25.896,17.756,51.013,26.259,76.642c3.827,11.535,9.072,22.532,12.28,34.262c3.952,14.452,4.964,28.978,0.579,43.524
		c-0.922,3.058-2.051,6.174-3.727,8.863c-6.065,9.726-9.568,20.724-15.564,30.506c-2.952,4.817-6.473,9.094-10.077,13.299
		c-7.155,8.347-13.079,17.631-20.016,26.078c-7.272,8.855-15.271,17.185-22.759,25.87c-16.683,19.351-37.154,35.074-52.77,55.334
		c-10.097,13.1-20.981,25.49-32.267,37.492c-10.389,11.048-22.092,20.867-32.149,32.243c-6.042,6.835-12.264,13.552-18.842,19.758
		c-5.305,5.006-11.524,9.245-17.385,13.752c-13.293,10.221-23.648,22.695-30.655,37.862c-3.55,7.684-9.336,12.16-17.363,14.173
		c-1.152,0.289-3.743,0.277-1.549,2.636c7.109,7.646,8.461,17.419,9.881,27.091c1.038,7.071,0.005,14.206-0.149,21.308
		c-0.091,4.174,0.48,8.142,2.677,11.695c1.776,2.873,1.13,5.168-0.458,7.964c-3.043,5.36-8.567,8.103-12.369,12.625
		c-3.753,4.464-6.424,8.99-7.094,15.217c-0.587,5.461-1.678,11.122-3.323,16.456c-2.748,8.909-4.711,17.994-6.98,27.012
		c-1.403,5.574-4.348,10.601-5.414,16.362c-0.813,4.389,0.2,8.758-0.922,13.127c-2.145,8.356-5.55,16.666-6.132,25.353
		c-0.974,14.55-5.538,27.718-7.102,42.09c-1.407,12.932-6.133,24.865-9.946,37.079c-7.151,22.901-15.928,45.211-24.758,67.502
		c-7.8,19.691-12.805,40.218-17.893,60.718c-1.015,4.089-2.352,8.101-3.603,12.129c-3.194,10.287-1.828,20.392,1.3,30.379
		c4.655,14.86,6.976,30.213,9.93,45.442c1.869,9.638,3.635,19.287,4.894,29.014c1.497,11.566,2.898,23.121,3.149,34.84
		c0.254,11.848,0.448,23.666-0.803,35.445c-0.89,8.383-3.024,16.556-5.116,24.718c-3.911,15.255-6.092,30.762-7.871,46.421
		c-1.756,15.462-2.781,30.973-4.166,46.449c-1.081,12.087-4.058,24.068-2.717,36.348c0.753,6.895-1.023,14.169,0.54,20.624
		c1.849,7.638,1.87,15.519,4.465,23.091c2.871,8.376,4.883,17.306,5.458,26.113c0.359,5.491-2.783,10.891-8.744,13.796
		c-7.351,3.582-14.896,5.494-23.061,4.802c-8.727-0.739-17.461-0.691-25.963-3.842c-9.859-3.654-20.491-4.028-30.875-5.025
		c-9.085-0.872-18.117-2.078-27.112-3.485c-7.95-1.244-15.998-1.499-23.774-0.418c-9.812,1.364-19.22-0.169-28.681-1.627
		c-6.536-1.007-13.045-1.513-19.625-1.729c-3.139-0.103-7.019,0.104-8.42-3.281c-1.529-3.693,2.448-5.026,4.484-7.099
		c5.506-5.607,12.574-8.425,19.737-11.069c17.901-6.608,35.804-13.21,53.71-19.804c1.425-0.525,2.849-1.272,4.321-1.413
		c36.123-3.461,21.019-72.626,20.841-94.401c-0.051-6.194,0.828-12.607,0.296-18.918c-1.622-19.227-2.958-38.476-4.653-57.699
		c-2.107-23.895-5.074-47.694-7.712-71.518c-1.885-17.02-2.966-34.042-3.435-51.094c-0.218-7.933,0.359-15.903-1.413-23.681
		c-1.384-6.075-3.062-12.149-5.34-17.936c-2.389-6.068-2.18-12.305-2.298-18.503c-0.098-5.138-0.458-10.237-2.031-15.034
		c-3.706-11.305-3.943-23.006-4.091-34.627c-0.157-12.28-0.318-24.688,1.642-36.826c2.105-13.04,2.736-26.197,1.725-39.136
		c-1.189-15.214,0.109-30.442-1.722-45.637c-1.129-9.372,1.275-18.891,1.467-28.355c0.39-19.194,5.484-37.648,8.122-56.477
		c1.33-9.497,2.819-19.091,2.537-28.784c-0.063-2.18,0.117-4.235,1.192-6.359c1.637-3.235,0.883-6.531-1.175-9.543
		c-2.536-3.713-5.378-5.436-10.216-3.734c-5.728,2.016-6.708,1.283-9.744-3.904c-4.707-8.042-11.581-13.336-20.419-16.162
		c-0.965-0.309-2.133-0.486-2.802-1.139c-6.133-5.984-14.859-7.529-21.479-12.653c-1.401-1.084-2.883-0.784-4.282,0.037
		c-2.757,1.618-5.532,3.212-8.222,4.936c-6.354,4.073-9.765,3.679-14.442-2.106c-2.423-2.997-5.42-5.57-6.856-9.34
		c-0.989-2.597-3.741-3.356-5.813-4.693c-9.947-6.421-18.9-14.194-28.559-20.957c-11.071-7.751-21.408-16.368-31.636-25.097
		c-8.103-6.916-17.61-12.159-24.777-20.053c-6.412-7.063-14.483-11.698-21.957-17.253c-5.16-3.835-8.654-9.355-12.348-14.487
		c-5.894-8.187-12.531-15.473-20.685-21.459c-6.711-4.927-11.477-11.915-17.881-17.292c-5.702-4.788-11.958-8.949-17.095-14.443
		c-2.427-2.595-4.401-5.425-6.274-8.402c-1.533-2.437-2.22-5.619-5.769-6.453c-0.87-0.204-1.586-1.702-2.088-2.742
		c-6.232-12.936-9.789-26.345-6.578-40.78c0.832-3.739,0.156-5.599-4.109-6.116c-26.846-3.253-52.494-11.259-77.925-20.058
		c-15.47-5.353-30.888-10.844-46.275-16.439c-13.303-4.837-27.26-7.675-41.048-10.936c-5.098-1.206-10.22-2.314-15.315-3.533
		c-6.699-1.603-12.438-5.131-18.169-8.818c-17.918-11.529-35.933-22.908-53.955-34.276c-13.312-8.397-25.623-18.17-38.328-27.41
		c-10.939-7.955-21.945-15.821-32.729-23.987c-1.707-1.293-2.928-2.102-5.357-1.128c-3.149,1.262-6.694,0.506-8.488-2.605
		c-1.304-2.261-2.853-2.938-5.145-3.375c-10.828-2.067-21.463-4.876-31.043-10.53c-8.459-4.993-17.868-4.391-27.049-5.13
		c-4.38-0.353-8.805-0.106-13.207-0.223c-3.083-0.083-5.941-1.071-8.794-2.231c-2.621-1.066-3.644-2.693-3.26-5.485
		c0.401-2.909,2.426-3.606,4.74-3.436c8.872,0.652,17.456-1.598,26.18-2.402c1.381-0.127,3.574,0.408,3.689-1.484
		c0.094-1.554-1.968-1.93-3.39-2.538c-10.188-4.355-21.147-5.651-31.855-7.742c-6.429-1.255-10.682-6.214-16.762-7.985
		c-3.199-0.932-2.638-7.167,0.548-8.784c1.628-0.826,3.49-1.543,5.282-1.639c10.495-0.561,20.708-3.266,31.178-3.964
		c0.95-0.063,2.275,0.309,2.676-0.861c0.523-1.527-0.908-2.06-1.928-2.51c-4.639-2.044-9.361-3.903-13.972-6.006
		c-3.273-1.493-6.372-3.245-6.548-7.57c-0.139-3.402,1.243-5.044,4.739-4.988c3.636,0.059,6.908,1.537,10.355,2.331
		c10.461,2.408,19.696,7.303,29.225,12.19c17.799,9.128,33.575,21.504,51.445,30.396c2.126,1.058,3.817,1.357,6.175,0.711
		c5.247-1.438,11.362-0.498,13.443,5.677c0.753,2.236,2.635,3.521,4.764,4.29c19.423,7.017,37.056,18.205,56.657,24.699
		c19.103,6.329,37.436,14.661,56.57,20.894c17.147,5.586,32.733,14.449,47.753,24.307c6.132,4.024,12.765,7.036,19.757,8.949
		c20.357,5.57,40.593,11.782,61.466,15.128c12.738,2.042,25.735,1.404,38.48-0.18c24.105-2.996,48.204-4.345,72.443-2.465
		c2.018,0.156,4.034,0.485,6.017,0.898c5.871,1.225,8.6-0.142,10.993-5.588c2.424-5.518,3.928-11.031,2.193-17.199
		c-1.456-5.174-1.838-10.651-3.3-15.823c-4.399-15.567-14.077-21.385-30.153-18.947c-8.164,1.238-16.218,3.4-24.508,3.603
		c-12.011,0.294-17.322-3.56-20.869-14.96c-1.382-4.443-1.639-9.459-7.405-10.943c-0.599-0.154-1.366-1.327-1.337-1.996
		c0.307-6.998-4.543-13.43-2.152-20.67c1.076-3.258-0.054-5.205-3.621-6.41c-8.518-2.877-10.278-9.677-4.38-16.556
		c4.654-5.428,8.128-11.648,12.285-17.405c2.071-2.867,2.957-6.308,1.57-9.662c-6.141-14.853-2.23-29.475,1.484-43.827
		c2.112-8.161,1.841-16.88,5.844-24.576c1.48-2.845,2.694-5.827,4.096-8.714c0.513-1.058,1.279-2.719,2.296-2.484
		c4.628,1.071,5.76-3.003,8.089-5.199c2.029-1.914,4.328-3.421,6.882-4.195c9.728-2.946,18.539-8.281,28.307-10.985
		C523.992,310.092,537.259,308.659,550.513,308.041z M722.397,610.662c-1.052,3.743,0.418,7.267,2.345,10.761
		c1.796,3.256,3.438,6.603,5.006,9.975c4.457,9.583,4.429,9.596,13.398,4.671c0.297-0.163,0.584-0.36,0.901-0.469
		c14.498-5.022,29.33-6.597,44.536-4.3c2.519,0.381,4.51,2.425,7.199,2.279c8.948-0.486,17.932-0.622,26.836-1.536
		c11.151-1.145,22.122,0.101,33.139,1.299c4.882,0.531,10.534,1.609,13.618-3.022c5.925-8.896,16.69-7.155,24.731-12.883
		c4.094-2.917,7.749-6.447,12.04-9.063c15.235-9.288,34.577-11.383,49.587-21.376c16.376-10.903,33.137-21.204,49.277-32.492
		c14.65-10.247,29.266-20.558,43.849-30.894c13.38-9.484,25.91-20.158,39.062-29.977c9.243-6.9,17.026-15.375,25.742-22.842
		c8.799-7.537,9.059-11.78,3.546-22.59c-5.226-10.246-11.375-19.997-15.886-30.636c-4.698-11.079-9.213-22.268-11.867-33.962
		c-3.008-13.254-2.905-26.894-2.357-40.448c0.909-22.508,1.961-45.011,1.369-67.549c-0.416-15.859-0.975-31.716-1.152-47.577
		c-0.108-9.69,0.188-9.363-9.56-8.614c-12.063,0.927-23.76-4.771-27.363-17.536c-2.177-7.714-1.634-15.014-0.81-22.57
		c0.118-1.078,1.45-2.425,0.172-3.139c-1.021-0.571-2.086,0.785-3.018,1.48c-10.476,7.806-19.893,16.855-29.494,25.652
		c-21.351,19.563-40.939,40.956-62.399,60.43c-16.316,14.806-32.626,29.535-51.913,40.534c-5.277,3.01-10.315,6.463-14.58,10.914
		c-8.072,8.425-17.461,15.87-23.44,25.929c-9.497,15.977-18.43,32.336-26.72,48.973c-13.36,26.812-28.49,52.573-44.227,78.017
		c-12.131,19.615-25.473,38.27-40.922,55.484c-8.32,9.27-15.897,19.346-20.361,31.253c-1.939,5.172-3.776,10.216-3.183,16.143
		c0.86,8.61,0.187,17.296-4.111,25.184C722.962,600.611,721.79,605.259,722.397,610.662z"/>
</g>
</svg>
